<svg xmlns="http://www.w3.org/2000/svg" xmlns:xlink="http://www.w3.org/1999/xlink" id="dashboard" data-name="Calque 1" viewBox="0 0 1705 1080">
  <defs/>
  <defs>
    <linearGradient id="Dégradé_sans_nom_42" x1="1163.2" x2="1683.8" y1="279.9" y2="279.9" gradientUnits="userSpaceOnUse">
      <stop offset=".1" stop-color="#007d8c"/>
      <stop offset=".9" stop-color="#78bcbf"/>
    </linearGradient>
    <linearGradient id="Dégradé_sans_nom_42-2" x1="184.7" x2="1003.5" y1="274.8" y2="274.8" xlink:href="#Dégradé_sans_nom_42"/>
    <linearGradient id="Dégradé_sans_nom_42-3" x1="337.9" x2="537" y1="831.2" y2="831.2" gradientTransform="matrix(-1 0 0 1 742.8 0)" xlink:href="#Dégradé_sans_nom_42"/>
    <linearGradient id="Dégradé_sans_nom_42-4" x1="759.4" x2="770.8" y1="838.5" y2="838.5" xlink:href="#Dégradé_sans_nom_42"/>
    <linearGradient id="Dégradé_sans_nom_42-5" x1="931.8" x2="943.3" y1="796.9" y2="796.9" xlink:href="#Dégradé_sans_nom_42"/>
    <linearGradient id="Dégradé_sans_nom_42-6" x1="1146.7" x2="1158.2" y1="859" y2="859" xlink:href="#Dégradé_sans_nom_42"/>
    <linearGradient id="Dégradé_sans_nom_42-7" x1="1361.6" x2="1373.1" y1="827.4" y2="827.4" xlink:href="#Dégradé_sans_nom_42"/>
    <linearGradient id="Dégradé_sans_nom_42-8" x1="801.9" x2="813.3" y1="844.5" y2="844.5" xlink:href="#Dégradé_sans_nom_42"/>
    <linearGradient id="Dégradé_sans_nom_42-9" x1="1408.9" x2="1420.4" y1="838.5" y2="838.5" xlink:href="#Dégradé_sans_nom_42"/>
    <linearGradient id="Dégradé_sans_nom_42-10" x1="1451.4" x2="1462.8" y1="844.5" y2="844.5" xlink:href="#Dégradé_sans_nom_42"/>
    <linearGradient id="Dégradé_sans_nom_42-11" x1="977.2" x2="988.6" y1="844.5" y2="844.5" xlink:href="#Dégradé_sans_nom_42"/>
    <linearGradient id="Dégradé_sans_nom_42-12" x1="1538.6" x2="1550" y1="796.9" y2="796.9" xlink:href="#Dégradé_sans_nom_42"/>
    <linearGradient id="Dégradé_sans_nom_42-13" x1="1064" x2="1075.4" y1="844.5" y2="844.5" xlink:href="#Dégradé_sans_nom_42"/>
    <linearGradient id="Dégradé_sans_nom_42-14" x1="1190.6" x2="1202.1" y1="844.5" y2="844.5" xlink:href="#Dégradé_sans_nom_42"/>
    <linearGradient id="Dégradé_sans_nom_42-15" x1="1102" x2="1113.4" y1="887.4" y2="887.4" xlink:href="#Dégradé_sans_nom_42"/>
    <linearGradient id="Dégradé_sans_nom_42-16" x1="1234.5" x2="1246" y1="844.5" y2="844.5" xlink:href="#Dégradé_sans_nom_42"/>
    <linearGradient id="Dégradé_sans_nom_42-17" x1="888.4" x2="899.8" y1="823.3" y2="823.3" xlink:href="#Dégradé_sans_nom_42"/>
    <style>.cls-1{fill:#2b2b4b;opacity:.4}.cls-15{opacity:.86}.cls-5{fill:#fff}.cls-6{opacity:.3}.cls-8{fill:#aec3ce}.cls-10{fill:#f8adab}</style>
  </defs>
  <rect width="1096.9" height="535.8" x="22.8" y="14.4" class="cls-1" rx="14.1"/>
  <rect width="520.7" height="535.8" x="1163.2" y="12" fill="#003" rx="14.1"/>
  <rect width="520.7" height="535.8" x="1163.2" y="12" fill="url(#Dégradé_sans_nom_42)" opacity=".9" rx="14.1"/>
  <path fill="#fff" d="M1576.2 189.6A293.3 293.3 0 001283 482.9a294.4 294.4 0 007.3 65h368.6a25 25 0 0025-25V210a292.7 292.7 0 00-107.6-20.4z" opacity=".1"/>
  <rect width="520.7" height="473.5" x="20.5" y="594.5" class="cls-1" rx="14.1"/>
  <rect width="1096.9" height="473.5" x="594.1" y="594.5" class="cls-1" rx="14.1"/>
  <path d="M1232.4 107.3c8.6 0 15.6 3.9 15.6 12.6 0 7.2-6 11.5-11.6 14.8-5 3-9.4 5.4-9.5 8.1h21.4v8h-32v-4.1c0-10.3 7.8-14.4 14-18 4.5-2.6 8.3-4.3 8.3-8.4 0-3.1-2.7-4.8-7-4.8a23.4 23.4 0 00-13.9 5.1v-8.8a25 25 0 0114.7-4.5zM1277.8 128.3c4.3 1.3 8.2 4.6 8.2 10.9 0 9-8.2 12.6-17 12.6a36.5 36.5 0 01-14.9-3v-8.7a26 26 0 0014.1 3.4c4.8 0 8.9-1.6 8.9-5.6 0-3.7-3.2-5-7.4-5h-7v-8h6c4.1 0 6.7-1.5 6.7-4.5s-2.7-4.9-7.9-4.9a25 25 0 00-12.6 3.8v-8.7a29.4 29.4 0 0114-3.3c8.8 0 15.4 4 15.4 11.8a9.3 9.3 0 01-6.5 9.2zM1289 160l4-16.9h9.2L1296 160zM1325.7 107.3c10.9 0 16.5 6 16.6 12 0 4.2-2 7.3-5.4 9.9 3.9 2 7 5 7 10.1 0 6.3-5.2 12.5-18 12.5s-18.2-6.3-18.2-12.8c0-4.3 2.7-8.4 6.7-10.7a10.6 10.6 0 01-5.1-9.2c0-5.7 4.7-11.8 16.4-11.8zm-5.3 23.8a8.7 8.7 0 00-3.3 6.8c0 3.6 3 6.4 9.4 6.4 4.5 0 8-1.8 8-4.7 0-3.7-3.5-4.9-7.7-6.3-2-.7-4.2-1.3-6.4-2.2zm5-16.4c-4.6 0-7.2 2-7.2 4.4 0 3.8 3.9 5 8 6.4l4 1.1a9.4 9.4 0 003-6.6c0-3-2.6-5.3-7.9-5.3zM1373 128.3c4.4 1.3 8.3 4.6 8.3 10.9 0 9-8.3 12.6-17 12.6a36.5 36.5 0 01-15-3v-8.7a26.1 26.1 0 0014.2 3.4c4.8 0 8.8-1.6 8.8-5.6 0-3.7-3.1-5-7.4-5h-7v-8h6c4.2 0 6.8-1.5 6.8-4.5s-2.7-4.9-7.9-4.9a25 25 0 00-12.6 3.8v-8.7a29.5 29.5 0 0114-3.3c8.8 0 15.4 4 15.4 11.8a9.3 9.3 0 01-6.5 9.2zM1402.2 107.3c13.7 0 19.3 8.4 19.3 22.2 0 15.7-9.4 22.3-20.3 22.3a28.3 28.3 0 01-11.7-2.7v-8.3a19.7 19.7 0 0010.5 3c5.8 0 11-2.4 12.2-10.9a22.9 22.9 0 01-11.4 2.9c-7.7 0-15-4.7-15-13.8 0-9.8 7.6-14.7 16.4-14.7zm-7 14.2c0 5 4 6.4 8.4 6.4a16.4 16.4 0 008.6-2.5c-1-8-4.4-10.5-9.3-10.5-4.1 0-7.6 2-7.6 6.6zM1423.3 160l4-16.9h9.2l-6.1 16.9zM1460.3 107.3c13.6 0 19.5 9.9 19.5 22.2s-5.9 22.3-19.5 22.3-19.5-10-19.5-22.3 5.9-22.2 19.5-22.2zm0 8.3c-7 0-10 4.8-10 14s3 14 10 14 10-5 10-14-3-14-10-14zM1504.7 107.3c13.6 0 19.5 9.9 19.5 22.2s-5.9 22.3-19.5 22.3-19.5-10-19.5-22.3 5.8-22.2 19.5-22.2zm0 8.3c-7 0-10 4.8-10 14s3 14 10 14 10-5 10-14-3.1-14-10-14z" class="cls-5"/>
  <g class="cls-6">
    <path d="M186.4 452.7v9h2v1.6h-5.9v-1.6h2.2v-7.2l-2.1.8v-1.6l2.5-1zM301.7 452.5c2.2 0 3.8 1 3.8 3 0 1.8-1.5 2.9-3 3.7s-2.6 1.5-2.6 2.5h5.6v1.6H298v-.8c0-2.6 1.9-3.5 3.5-4.5 1.2-.7 2.3-1.3 2.3-2.5 0-.9-.8-1.3-2.1-1.3a5.8 5.8 0 00-3.4 1.1v-1.7a6 6 0 013.5-1.1zM420.2 457.7a2.7 2.7 0 012 2.7c0 2.1-1.9 3-4 3a9 9 0 01-3.7-.6V461a6.8 6.8 0 003.6.8c1.4 0 2.4-.5 2.4-1.7s-1-1.6-2.2-1.6h-1.7V457h1.5c1.3 0 2-.6 2-1.4s-.8-1.5-2.2-1.5a6.4 6.4 0 00-3.2.8v-1.7a7.2 7.2 0 013.4-.7c2.2 0 3.7 1 3.7 2.9a2.3 2.3 0 01-1.6 2.3zM537.6 452.7v6.9h1.9v1.5h-1.8v2.2h-1.8V461h-5.7v-1.5l5.6-6.9zM536 455l-3.7 4.6h3.7zM654.8 452.7v1.6H650l-.1 2.5a7 7 0 011.6-.2c2 0 3.9 1 3.9 3.4 0 2.3-2 3.5-4.3 3.5a8 8 0 01-3.4-.7V461a6.6 6.6 0 003.2.8c1.6 0 2.7-.6 2.7-1.9 0-1.4-1.2-1.9-2.9-1.9a8.7 8.7 0 00-2.7.5l.4-5.9zM768.7 456.6a3.4 3.4 0 013.7 3.3c0 2.4-1.8 3.6-4 3.6-3.2 0-4.6-2-4.6-5.4 0-4 2.2-5.6 5-5.6a6.2 6.2 0 012.7.6v1.6a5.3 5.3 0 00-2.6-.6c-1.6 0-3 .8-3.3 3.3a5.7 5.7 0 013.1-.8zm-.4 5.4c1.2 0 2.3-.6 2.3-2s-1.2-1.9-2.4-1.9a4.1 4.1 0 00-2.6 1c.2 2 1.2 2.9 2.7 2.9zM888.5 452.7v1.4l-4.4 9.2h-1.9l4.3-9h-5.8v-1.6zM1001 452.5c2.6 0 4 1.4 4 3a3 3 0 01-1.3 2.5 2.7 2.7 0 011.8 2.5c0 1.5-1.3 3-4.4 3s-4.4-1.5-4.4-3.1a3.4 3.4 0 011.7-2.8 2.6 2.6 0 01-1.3-2.2c0-1.4 1.2-2.9 4-2.9zm-1.2 5.7a2.3 2.3 0 00-1.3 2c0 1.1 1 1.8 2.7 1.8 1.4 0 2.5-.5 2.5-1.4 0-1.1-1.1-1.4-2.4-1.8l-1.5-.6zm1.2-4.2c-1.4 0-2.2.6-2.2 1.3 0 1.2 1.3 1.5 2.4 1.9l1.1.3a2.4 2.4 0 001-1.8c0-1-.8-1.7-2.3-1.7z" class="cls-5"/>
  </g>
  <g class="cls-6">
    <path d="M67.3 340.2v9H69v1.6h-5.7v-1.6h2.1V342l-2.1.8v-1.6l2.6-1zM75 340c3.3 0 4.8 2.4 4.8 5.5S78.3 351 75 351s-4.8-2.4-4.8-5.5 1.5-5.5 4.8-5.5zm0 1.6c-2 0-3 1.4-3 3.9s1 3.9 3 3.9 3-1.4 3-4-1-3.8-3-3.8zM81.8 350.8v-11h1.8v4.6h2.1l3-4.5h2l-3.6 5.3 4 5.6h-2l-3.4-4.8h-2.1v4.8zM68 412.2c3.4 0 4.8 2.4 4.8 5.5s-1.4 5.5-4.7 5.5-4.8-2.4-4.8-5.5 1.5-5.5 4.8-5.5zm0 1.6c-2 0-3 1.4-3 4s1 3.8 3 3.8 3-1.4 3-3.9-.9-3.9-3-3.9zM74.9 423v-10.9h1.8v4.5h2.1l3-4.5h2l-3.6 5.3 4 5.6h-2l-3.3-4.7h-2.2v4.7zM67.1 267.7c2.2 0 3.8 1 3.8 3 0 1.8-1.5 2.9-3 3.7s-2.6 1.5-2.7 2.6H71v1.6h-7.7v-.9c0-2.5 2-3.5 3.6-4.5 1.2-.7 2.3-1.2 2.3-2.4 0-1-.8-1.4-2.1-1.4a5.8 5.8 0 00-3.4 1.2v-1.7a6.1 6.1 0 013.5-1.2zM77.2 267.7c3.3 0 4.7 2.4 4.7 5.5s-1.4 5.5-4.7 5.5-4.8-2.4-4.8-5.5 1.5-5.5 4.8-5.5zm0 1.7c-2 0-3 1.4-3 3.8s1 4 3 4 3-1.5 3-4-1-3.8-3-3.8zM84 278.5v-10.9h1.8v4.6h2.1l3-4.6h2l-3.6 5.3 4 5.6h-2l-3.3-4.7h-2.2v4.7zM69 200.7a2.7 2.7 0 012 2.7c0 2.2-1.8 3.1-4 3.1a8.9 8.9 0 01-3.6-.7v-1.7a6.9 6.9 0 003.5.8c1.4 0 2.5-.5 2.5-1.7s-1-1.6-2.2-1.6h-1.7V200h1.4c1.3 0 2-.6 2-1.4s-.8-1.5-2.2-1.5a6.4 6.4 0 00-3.2.8v-1.7a7.2 7.2 0 013.4-.7c2.2 0 3.7 1 3.7 2.9a2.3 2.3 0 01-1.5 2.3zM77.3 195.5c3.3 0 4.8 2.4 4.8 5.5s-1.5 5.5-4.8 5.5-4.8-2.4-4.8-5.5 1.5-5.5 4.8-5.5zm0 1.6c-2 0-3 1.4-3 3.9s1 3.9 3 3.9 3-1.4 3-3.9-1-3.9-3-3.9zM84.1 206.3v-10.9H86v4.6H88l3-4.5h2l-3.6 5.3 3.9 5.5h-2l-3.3-4.7h-2.1v4.8zM70.4 123.5v6.9h1.8v1.5h-1.8v2.2h-1.7v-2.2H63v-1.5l5.6-7zm-1.7 2.2l-3.8 4.7h3.8zM78.2 123.3c3.3 0 4.7 2.4 4.7 5.5s-1.4 5.5-4.7 5.5-4.8-2.4-4.8-5.5 1.5-5.5 4.8-5.5zm0 1.6c-2 0-3 1.4-3 3.9s1 3.8 3 3.8 3-1.4 3-3.8-1-4-3-4zM85 134v-10.8h1.8v4.5h2.1l3-4.5h2l-3.6 5.3 3.9 5.6h-2l-3.2-4.8h-2.2v4.8z" class="cls-5"/>
  </g>
  <g opacity=".1">
    <path d="M125 128.3h863.9v.9H125zM125 199.4h863.9v.9H125zM125 271.9h863.9v.9H125zM125 344.9h863.9v.9H125z" class="cls-8"/>
  </g>
  <g class="cls-6">
    <path d="M653.1 926.1v8.9h1.9v1.6h-5.8V935h2.1v-7l-2 .7v-1.6l2.5-1zM660.9 926c3.2 0 4.7 2.3 4.7 5.3s-1.5 5.5-4.7 5.5-4.8-2.4-4.8-5.5 1.5-5.4 4.8-5.4zm0 1.5c-2 0-3 1.4-3 3.8s.9 3.9 3 3.9 3-1.4 3-3.9-1-3.8-3-3.8zM667.7 936.6v-10.8h1.7v4.5h2.2l3-4.5h2l-3.6 5.3 3.9 5.5h-2l-3.3-4.7h-2.2v4.7zM654 997.2c3.2 0 4.7 2.4 4.7 5.4s-1.5 5.5-4.8 5.5-4.7-2.4-4.7-5.5 1.5-5.4 4.7-5.4zm0 1.6c-2 0-3 1.4-3 3.8s.9 3.9 3 3.9 3-1.4 3-3.9-1-3.8-3-3.8zM660.8 1007.9V997h1.7v4.5h2.2l3-4.5h2l-3.6 5.2 3.9 5.6h-2l-3.3-4.7h-2.2v4.7zM653 854.6c2.1 0 3.7 1 3.7 3 0 1.7-1.5 2.8-2.9 3.6s-2.7 1.5-2.7 2.5h5.7v1.6h-7.7v-.8c0-2.6 2-3.5 3.5-4.5 1.3-.7 2.4-1.2 2.4-2.4 0-.9-.8-1.4-2.2-1.4a5.8 5.8 0 00-3.3 1.2v-1.7a6.2 6.2 0 013.5-1zM663 854.6c3.3 0 4.8 2.4 4.8 5.4s-1.5 5.5-4.8 5.5-4.7-2.4-4.7-5.5 1.5-5.4 4.8-5.4zm0 1.6c-2 0-3 1.4-3 3.8s1 3.9 3 3.9 3-1.4 3-3.8-1-3.9-3-3.9zM669.9 865.3v-10.8h1.8v4.5h2.1l3-4.5h2l-3.6 5.2 3.9 5.6h-2l-3.3-4.7h-2.2v4.7zM655 788.5a2.7 2.7 0 012 2.6c0 2.1-2 3-4.1 3a9 9 0 01-3.7-.7v-1.6a7 7 0 003.6.8c1.4 0 2.4-.5 2.4-1.7s-1-1.5-2.2-1.5h-1.7v-1.6h1.5c1.3 0 2-.6 2-1.4s-.8-1.5-2.2-1.5a6.3 6.3 0 00-3.2.9V784a7.3 7.3 0 013.4-.8c2.2 0 3.7 1 3.7 2.9a2.3 2.3 0 01-1.6 2.3zM663.2 783.3c3.2 0 4.7 2.4 4.7 5.5s-1.5 5.4-4.7 5.4-4.8-2.4-4.8-5.5 1.5-5.4 4.8-5.4zm0 1.6c-2 0-3 1.4-3 3.9s.9 3.8 3 3.8 3-1.4 3-3.8-1-3.9-3-3.9zM670 794v-10.8h1.8v4.5h2.1l3-4.5h2l-3.6 5.3 4 5.5h-2l-3.4-4.7h-2.2v4.7zM656.3 712.2v6.8h1.8v1.5h-1.8v2.2h-1.7v-2.2h-5.8V719l5.6-6.8zm-1.7 2.3l-3.8 4.5h3.8zM664 712c3.3 0 4.8 2.4 4.8 5.4s-1.5 5.4-4.8 5.4-4.7-2.3-4.7-5.4 1.5-5.4 4.8-5.4zm0 1.6c-2 0-3 1.4-3 3.8s1 3.9 3 3.9 3-1.4 3-3.9-1-3.8-3-3.8zM670.9 722.7v-10.8h1.8v4.5h2l3-4.5h2l-3.5 5.3 3.9 5.5h-2l-3.3-4.7h-2.1v4.7z" class="cls-5"/>
  </g>
  <g opacity=".1">
    <path d="M710.9 717.1h911.2v.9H710.9zM710.9 788.2h911.2v.9H710.9zM710.9 860.7h911.2v.9H710.9zM710.9 933.7h911.2v.9H710.9zM710.9 1006.7h911.2v.9H710.9z" class="cls-8"/>
  </g>
  <path d="M184.7 416.1S345.3 327.2 401.5 243c51.6-77.4 99-47.9 124.5 19.5 23.7 62.7 51.6 51.8 68.1 46.7 32.4-10 41.1-6.2 67.8 17.4s36.6 33.4 81-11 64-102 124.5-34.3 136 135 136 135z" class="cls-10"/>
  <path fill="url(#Dégradé_sans_nom_42-2)" d="M184.7 415.8s90-255.6 124.7-276.2 53.6 16.9 82 75.1 64.7 101.5 113.6 94 89.9 18.6 116.7 51.6 103 44 131-19.6c26-59.6 56.7-219.5 102.5-159.4s57.4 191.9 81.5 182.1c32.3-13 46-13 55.4 17.8a1043 1043 0 0011.4 34.7z" opacity=".9"/>
  <path d="M248.3 809.5v25h6.6v5.6h-6.6v7.9h-6.2v-7.9h-21v-5.5l20.6-25.1zm-6.2 8.2l-13.7 16.8H242zM285.5 809.5v5.8h-17.8l-.5 9.3a24.5 24.5 0 015.8-.7c7.4 0 14.3 3.2 14.3 12.3 0 8.3-7 12.5-15.6 12.5a29.3 29.3 0 01-12.3-2.6v-6a24.1 24.1 0 0011.6 2.8c5.7 0 9.8-2.3 9.8-6.8 0-5.1-4.4-7-10.5-7a31.2 31.2 0 00-9.8 1.8l1.3-21.4zM301.3 826.2c-5.2 0-9.8-3.2-9.8-9.3s4.6-9.3 9.8-9.3 9.6 3.2 9.6 9.3-4.5 9.3-9.6 9.3zm0-4.8a4.5 4.5 0 000-9 4.5 4.5 0 100 9zm0 30l23.2-46.4h5l-23.2 46.4zm28.3-2.7c-5.2 0-9.8-3.2-9.8-9.3s4.6-9.2 9.8-9.2 9.7 3.2 9.7 9.2-4.5 9.3-9.7 9.3zm0-4.8a4.5 4.5 0 000-9 4.5 4.5 0 100 9z" class="cls-5"/>
  <path fill="#fff" d="M1170.9 540.8a25 25 0 0017.3 7H1536c-20.8-82-95.1-142.7-183.6-142.7A189.4 189.4 0 001171 540.8z" opacity=".1"/>
  <path fill="#d9e3e8" d="M280.9 955.3a124.2 124.2 0 00124-123.2 12.5 12.5 0 00-12.4-12.5 12.5 12.5 0 00-12.5 12.3 99.2 99.2 0 01-99 98.4h-.8a99 99 0 111.4-198.2 12.5 12.5 0 00.2-24.9h-1a124 124 0 00-.7 248z" opacity=".2"/>
  <g class="cls-15">
    <path d="M280.9 955.3a124 124 0 100-248 12.5 12.5 0 000 24.9 99.1 99.1 0 11-99.1 99 12.5 12.5 0 00-25 0 124.2 124.2 0 00124 124z" class="cls-10"/>
  </g>
  <path fill="url(#Dégradé_sans_nom_42-3)" d="M280.9 955.3a124 124 0 100-248 12.5 12.5 0 000 24.9 99.1 99.1 0 11-55.7 181 12.5 12.5 0 00-14 20.7 123.4 123.4 0 0069.7 21.4z"/>
  <rect width="7" height="90.6" x="761.6" y="886" class="cls-10" rx="2"/>
  <rect width="11.4" height="153.6" x="759.4" y="761.7" fill="url(#Dégradé_sans_nom_42-4)" opacity=".9" rx="3.2"/>
  <rect width="7" height="90.6" x="934" y="844.4" class="cls-10" rx="2"/>
  <rect width="11.4" height="153.6" x="931.8" y="720.1" fill="url(#Dégradé_sans_nom_42-5)" opacity=".9" rx="3.2"/>
  <rect width="7" height="90.6" x="1148.9" y="906.6" class="cls-10" rx="2"/>
  <rect width="11.4" height="153.6" x="1146.7" y="782.3" fill="url(#Dégradé_sans_nom_42-6)" opacity=".9" rx="3.2"/>
  <rect width="7" height="90.6" x="1363.8" y="875" class="cls-10" rx="2"/>
  <rect width="11.4" height="153.6" x="1361.6" y="750.7" fill="url(#Dégradé_sans_nom_42-7)" opacity=".9" rx="3.2"/>
  <rect width="7" height="90.6" x="804.1" y="858.1" class="cls-10" rx="2"/>
  <rect width="7" height="124.6" x="848.4" y="843.3" class="cls-10" rx="2"/>
  <rect width="7" height="124.6" x="1279.4" y="843.3" class="cls-10" rx="2"/>
  <rect width="7" height="73.6" x="1019.8" y="869.8" class="cls-10" rx="2"/>
  <rect width="7" height="73.6" x="1319.9" y="843.3" class="cls-10" rx="2"/>
  <rect width="11.4" height="85.6" x="801.9" y="801.8" fill="url(#Dégradé_sans_nom_42-8)" opacity=".9" rx="3.2"/>
  <rect width="7" height="90.6" x="1411.1" y="886" class="cls-10" rx="2"/>
  <rect width="11.4" height="153.6" x="1408.9" y="761.7" fill="url(#Dégradé_sans_nom_42-9)" opacity=".9" rx="3.2"/>
  <rect width="7" height="90.6" x="1453.6" y="858.1" class="cls-10" rx="2"/>
  <rect width="7" height="124.6" x="1497.9" y="843.3" class="cls-10" rx="2"/>
  <rect width="11.4" height="85.6" x="1451.4" y="801.8" fill="url(#Dégradé_sans_nom_42-10)" opacity=".9" rx="3.2"/>
  <rect width="7" height="90.6" x="979.4" y="858.1" class="cls-10" rx="2"/>
  <rect width="11.4" height="85.6" x="977.2" y="801.8" fill="url(#Dégradé_sans_nom_42-11)" opacity=".9" rx="3.2"/>
  <rect width="11.4" height="153.6" x="1538.6" y="720.1" fill="url(#Dégradé_sans_nom_42-12)" opacity=".9" rx="3.2"/>
  <rect width="7" height="90.6" x="1066.2" y="858.1" class="cls-10" rx="2"/>
  <rect width="11.4" height="85.6" x="1064" y="801.8" fill="url(#Dégradé_sans_nom_42-13)" opacity=".9" rx="3.2"/>
  <rect width="7" height="90.6" x="1192.8" y="858.1" class="cls-10" rx="2"/>
  <rect width="11.4" height="85.6" x="1190.6" y="801.8" fill="url(#Dégradé_sans_nom_42-14)" opacity=".9" rx="3.2"/>
  <rect width="11.4" height="85.6" x="1102" y="844.5" fill="url(#Dégradé_sans_nom_42-15)" opacity=".9" rx="3.2"/>
  <rect width="7" height="90.6" x="1236.8" y="858.1" class="cls-10" rx="2"/>
  <rect width="11.4" height="85.6" x="1234.5" y="801.8" fill="url(#Dégradé_sans_nom_42-16)" opacity=".9" rx="3.2"/>
  <rect width="7" height="124.6" x="890.6" y="836.9" class="cls-10" rx="2"/>
  <rect width="11.4" height="85.6" x="888.4" y="780.5" fill="url(#Dégradé_sans_nom_42-17)" opacity=".9" rx="3.2"/>
</svg>